# xmcd CD database file
#
# Track frame offsets:
#	182
#	12717
#	26055
#	40277
#	51987
#	72182
#	86090
#	97062
#	106567
#	117900
#	128832
#	141895
#	151795
#	164115
#	176570
#	191172
#	203420
#	217322
#	230145
#
# Disc length: 3270 seconds
#
# Revision: 1
# Processed by: cddbd v1.5.1PL2 Copyright (c) Steve Scherf et al.
# Submitted via: CDex 1.51
#
DISCID=1b0cc413
DTITLE=Charlie Rich cd 1 - Country Classics (RD) Cd 1 [The Very best of]
DYEAR=1900
DGENRE=Country
TTITLE0=The Most Beautiful Girl
TTITLE1=Behind Closed Doors
TTITLE2=Sunday Kind Of Woman
TTITLE3=Set Me Free
TTITLE4=July 12th, 1939
TTITLE5=Sittin' And Thinkin'
TTITLE6=Just A Little Bit Sweet
TTITLE7=Lonely Weekends
TTITLE8=It Just Goes To Show (You Never Know About Love)
TTITLE9=There Won't Be Anymore
TTITLE10=I Take It On Home
TTITLE11=It's All Over Now
TTITLE12=Too Many Teardrops
TTITLE13=She
TTITLE14=Road Song
TTITLE15=Rollin' With The Flow
TTITLE16=Nice 'n Easy
TTITLE17=Easy Look
TTITLE18=Down By the Riverside
EXTD=
EXTT0=
EXTT1=
EXTT2=
EXTT3=
EXTT4=
EXTT5=
EXTT6=
EXTT7=
EXTT8=
EXTT9=
EXTT10=
EXTT11=
EXTT12=
EXTT13=
EXTT14=
EXTT15=
EXTT16=
EXTT17=
EXTT18=
PLAYORDER=
